<svg width="28" height="38" viewBox="0 0 28 38" fill="none" xmlns="http://www.w3.org/2000/svg">
<path d="M26.5515 8.02664H19.7695V1.23975L26.5515 8.02664Z" fill="#203A72"/>
<path d="M19.7202 10.5078C18.3802 10.5078 17.2892 9.41634 17.2892 8.07682V0H1.19021C0.535335 0 0 0.53582 0 1.1907V35.8693C0 36.5242 0.535335 37.06 1.19021 37.06H26.6014C27.2612 37.06 27.7921 36.5242 27.7921 35.8693V10.5078H19.7202ZM6.85045 12.656H16.2469C16.9311 12.656 17.4872 13.2116 17.4872 13.8963C17.4872 14.5809 16.9311 15.1366 16.2469 15.1366H6.85045C6.16581 15.1366 5.61016 14.5809 5.61016 13.8963C5.61016 13.2116 6.16581 12.656 6.85045 12.656ZM20.9451 29.0329H6.85045C6.16581 29.0329 5.61016 28.4772 5.61016 27.7926C5.61016 27.1079 6.16581 26.5523 6.85045 26.5523H20.9451C21.6298 26.5523 22.1854 27.1079 22.1854 27.7926C22.1854 28.4772 21.6298 29.0329 20.9451 29.0329ZM20.9451 22.0872H6.85045C6.16581 22.0872 5.61016 21.5315 5.61016 20.8469C5.61016 20.1623 6.16581 19.6066 6.85045 19.6066H20.9451C21.6298 19.6066 22.1854 20.1623 22.1854 20.8469C22.1854 21.5315 21.6298 22.0872 20.9451 22.0872Z" fill="#203A72"/>
</svg>
