<svg width="26" height="16" viewBox="0 0 26 16" fill="none" xmlns="http://www.w3.org/2000/svg">
<path d="M23.7291 7.68548C24.7154 6.9617 25.3558 5.79428 25.3558 4.47715C25.3558 2.28064 23.5752 0.5 21.3787 0.5C19.1822 0.5 17.4015 2.28064 17.4015 4.47715C17.4015 4.65764 17.4138 4.8353 17.4371 5.00941H8.41875C8.44206 4.83527 8.4543 4.65764 8.4543 4.47715C8.4543 2.28064 6.67366 0.5 4.47715 0.5C2.28064 0.5 0.5 2.28064 0.5 4.47715C0.5 5.79431 1.14045 6.9617 2.12679 7.68548C1.14045 8.40926 0.5 9.57668 0.5 10.8938C0.5 13.0903 2.28064 14.871 4.47715 14.871C6.67366 14.871 8.4543 13.0903 8.4543 10.8938C8.4543 10.7133 8.44203 10.5357 8.41875 10.3616H17.4371C17.4138 10.5357 17.4015 10.7133 17.4015 10.8938C17.4015 13.0903 19.1822 14.871 21.3787 14.871C23.5752 14.871 25.3558 13.0903 25.3558 10.8938C25.3558 9.57668 24.7154 8.40926 23.7291 7.68548Z" stroke="white" stroke-miterlimit="10" stroke-linejoin="round"/>
</svg>
