<svg width="25" height="25" viewBox="0 0 25 25" fill="none" xmlns="http://www.w3.org/2000/svg">
<path fill-rule="evenodd" clip-rule="evenodd" d="M6.3067 0C10.2097 0 14.1108 0 18.0138 0C18.4759 0.128374 18.9517 0.153632 19.4009 0.27767C19.8359 0.396712 20.242 0.565804 20.6122 0.73122C21.3633 1.09099 21.9988 1.56489 22.5296 2.14427C23.054 2.73053 23.5069 3.3871 23.7908 4.21333C24.1388 4.97537 24.2499 5.97502 24.3462 6.98825C24.3462 10.4364 24.3462 13.8846 24.3462 17.3321C24.2486 18.4033 24.1185 19.442 23.7402 20.2335C23.4292 21.0764 22.9337 21.7719 22.3525 22.3532C21.7723 22.9338 21.0763 23.4293 20.2334 23.7403C19.4423 24.118 18.4038 24.2482 17.3326 24.3464C13.8844 24.3464 10.4362 24.3464 6.98872 24.3464C5.97484 24.2495 4.97528 24.1391 4.21314 23.7909C3.38691 23.5065 2.72978 23.0543 2.14418 22.5296C1.56471 21.999 1.0908 21.3634 0.732353 20.6118C0.565712 20.2422 0.39728 19.8356 0.277578 19.4011C0.153634 18.9518 0.128279 18.4761 0 18.0133C0 14.1116 0 10.2093 0 6.30689C0.00857709 6.30689 0.0165892 6.30689 0.0252605 6.30689C0.24063 4.42851 0.902765 2.99566 1.9684 1.96764C2.48481 1.43331 3.09699 0.994563 3.83509 0.681076C4.5123 0.307265 5.4342 0.178328 6.3067 0ZM7.11436 2.39668C6.72133 2.4226 6.34186 2.43495 5.97964 2.49725C5.63599 2.55654 5.32373 2.69349 5.02004 2.77492C4.4696 3.04025 3.94084 3.32781 3.5823 3.78447C3.44092 3.85667 3.34224 4.07081 3.25458 4.16271C3.14346 4.27808 3.09718 4.41324 3.02753 4.54095C2.6721 5.18763 2.44928 5.9886 2.39621 6.91294C2.32166 8.22797 2.29574 9.70087 2.29574 11.1264C2.29574 12.8961 2.26482 14.7677 2.34569 16.4492C2.39819 17.5297 2.44871 18.4855 2.77521 19.2754C3.25279 20.4367 4.0957 21.2339 5.32307 21.6467C5.80678 21.7955 6.33017 21.8843 6.88731 21.9238C7.45321 21.9646 8.04927 21.9998 8.65334 21.9998C9.85413 21.9998 11.1099 22.025 12.3366 22.025C12.9284 22.025 13.5479 21.9998 14.1533 21.9998C14.7753 21.9998 15.401 22.0268 15.9946 21.9998C17.1861 21.946 18.3301 21.9349 19.2496 21.5456C20.4202 21.0765 21.2378 20.2546 21.6209 18.9977C21.8055 18.5356 21.8808 18.0116 21.924 17.4588C21.9678 16.8997 21.9963 16.2962 21.9998 15.6927C22.0092 13.881 21.9998 11.9736 21.9998 10.1928C21.9998 9.57514 22.0258 8.94316 21.9998 8.35087C21.9474 7.16366 21.9474 6.00481 21.5451 5.09648C21.1071 3.89447 20.2548 3.10707 19.0225 2.6998C18.3994 2.45295 17.6694 2.41478 16.9029 2.37161C14.5975 2.24135 11.8812 2.29753 9.5363 2.321C8.71319 2.30233 7.89384 2.3455 7.11436 2.39668Z" fill="white"/>
<path fill-rule="evenodd" clip-rule="evenodd" d="M18.5928 4.12772C18.5879 4.10671 18.6026 4.10425 18.6175 4.10303C18.9755 4.13149 19.2963 4.1987 19.5011 4.38013C19.7628 4.49673 19.8974 4.74113 20.0559 4.96083C20.1467 5.21437 20.2083 5.4977 20.1825 5.86849C20.1571 6.01968 20.1097 6.14928 20.0814 6.29735C20.0566 6.29857 20.0616 6.32817 20.0559 6.34796C19.869 6.6738 19.5999 6.9181 19.2742 7.1051C18.8471 7.25996 18.3473 7.23037 18.0129 7.07975C17.4494 6.82677 17.0538 6.28123 17.1039 5.4649C17.1371 5.24585 17.2236 5.07987 17.2809 4.88486C17.3463 4.82379 17.3927 4.7448 17.4321 4.65781C17.7203 4.39927 18.0102 4.14252 18.5422 4.12772C18.559 4.12772 18.5756 4.12772 18.5928 4.12772Z" fill="white"/>
<path fill-rule="evenodd" clip-rule="evenodd" d="M11.7805 5.82858C11.7762 5.80699 11.7909 5.80454 11.8063 5.80266C13.9698 5.75827 15.3409 6.50607 16.4738 7.49338C17.5383 8.53931 18.3608 9.8271 18.4916 11.8073C18.5668 12.8558 18.346 13.7412 18.0633 14.507C17.9585 14.7908 17.8116 15.0573 17.6592 15.3141C17.611 15.3962 17.5802 15.4917 17.5333 15.5671C17.5092 15.6041 17.4549 15.6337 17.4321 15.6676C17.4161 15.6917 17.4217 15.72 17.4068 15.7435C17.3821 15.783 17.3223 15.8639 17.2809 15.92C17.1562 16.0878 16.9939 16.2847 16.8267 16.4496C15.8098 17.5442 14.4986 18.3432 12.5381 18.4933C10.4377 18.5907 8.98756 17.8231 7.87009 16.8531C7.61956 16.5742 7.33445 16.3298 7.11352 16.0206C6.88712 15.7176 6.69333 15.3819 6.48296 15.0623C6.18182 14.312 5.86089 13.5813 5.82705 12.5644C5.71536 11.5105 5.98068 10.6164 6.23055 9.83945C6.39719 9.47657 6.54526 9.09466 6.78589 8.8052C6.96978 8.45967 7.19684 8.1573 7.46725 7.89688C7.95972 7.32976 8.55946 6.87065 9.25798 6.50975C9.60163 6.31964 9.98919 6.1759 10.3934 6.05554C10.7957 5.93527 11.2363 5.84328 11.7306 5.82848C11.7471 5.82858 11.7638 5.82858 11.7805 5.82858ZM11.7558 8.24996C11.1912 8.29067 10.7647 8.47089 10.3427 8.65355C9.9743 8.85723 9.65459 9.10955 9.35901 9.38543C9.08012 9.67912 8.84571 10.0161 8.62714 10.3696C8.41799 10.8614 8.21676 11.4896 8.22364 12.1857C8.23042 12.8682 8.42656 13.5051 8.65249 13.9777C9.3511 15.1544 10.3525 16.0276 12.1593 16.0967C12.9696 16.0918 13.7167 15.8263 14.2031 15.5166C14.2426 15.4907 14.2697 15.4636 14.3037 15.4408C14.3375 15.4179 14.3993 15.4117 14.4301 15.3901C14.4406 15.3834 14.4449 15.3489 14.4548 15.3395C14.4752 15.3211 14.5079 15.3315 14.5308 15.3142C14.6086 15.2562 14.6975 15.1525 14.7579 15.113C14.959 14.9798 15.1058 14.778 15.2373 14.6083C15.6242 14.1085 15.8846 13.5803 16.0192 12.8422C16.1031 12.3856 16.1148 11.9357 16.0445 11.4544C15.9471 11.1317 15.8581 10.7997 15.7422 10.4955C15.4508 9.9191 15.0503 9.4236 14.5562 9.03236C14.5315 9.01266 14.4821 9.00154 14.4549 8.98174C14.4438 8.97307 14.4414 8.94159 14.4302 8.93113C14.4099 8.91256 14.379 8.92312 14.3544 8.90643C14.3198 8.88174 14.3087 8.84969 14.2784 8.83056C14.2408 8.80652 14.1944 8.8052 14.1526 8.77994C14.1217 8.76213 14.1074 8.72132 14.0772 8.70407C14.0401 8.68305 13.9927 8.6757 13.9507 8.65346C13.3724 8.35854 12.7078 8.18879 11.831 8.22526C11.8163 8.22649 11.8015 8.22894 11.8063 8.24996C11.7892 8.24996 11.7725 8.24996 11.7558 8.24996Z" fill="white"/>
</svg>
