<svg width="25" height="23" viewBox="0 0 25 23" fill="none" xmlns="http://www.w3.org/2000/svg">
<path d="M17.8539 10.8977C17.4106 10.8977 17.0514 11.2569 17.0514 11.7002V16.0496H12.9463V7.29712C12.9463 6.40797 12.4301 5.58142 11.6302 5.19109L4.27851 1.60463H17.0514V5.95377C17.0514 6.39706 17.4106 6.75625 17.8539 6.75625C18.2972 6.75625 18.6564 6.39706 18.6564 5.95377V1.57254C18.6564 0.705538 17.9509 0 17.0839 0H0.802482C0.793173 0 0.784166 0.00255901 0.774858 0.00288C0.762018 0.00352199 0.749532 0.00545562 0.736693 0.00673959C0.683729 0.0112335 0.632682 0.0202208 0.583249 0.0343445C0.571373 0.0375544 0.56012 0.0410918 0.548885 0.0449437C0.491748 0.0642033 0.437178 0.0882639 0.386782 0.119079C0.384214 0.120684 0.381342 0.121322 0.379416 0.122606C0.378453 0.123248 0.377824 0.123903 0.377182 0.124545C0.265477 0.194843 0.174296 0.291787 0.108813 0.406061C0.104961 0.41248 0.10207 0.418566 0.0988605 0.424986C0.0699711 0.478271 0.047169 0.534778 0.0307984 0.594162C0.0298354 0.597372 0.02858 0.600885 0.027938 0.604095C0.0115673 0.667652 0 0.733469 0 0.802482V16.8521C0 17.2954 0.359191 17.6546 0.802482 17.6546C0.804729 17.6546 0.806316 17.654 0.808242 17.654C0.961677 17.7885 1.1312 17.9053 1.31834 17.9965L10.6843 22.5651C10.9041 22.6724 11.1397 22.7256 11.3744 22.7256C11.6636 22.7256 11.9515 22.6451 12.2071 22.4852C12.6699 22.196 12.9466 21.6975 12.9466 21.1515V17.6543H17.0842C17.9512 17.6543 18.6567 16.9487 18.6567 16.0814V11.7002C18.6564 11.2569 18.2972 10.8977 17.8539 10.8977Z" fill="#203A72"/>
<path d="M24.3179 9.13634C24.3218 9.12767 24.3231 9.11772 24.3263 9.10874C24.3414 9.06893 24.3555 9.02848 24.3638 8.98611C24.3741 8.93411 24.3799 8.88081 24.3799 8.82689C24.3799 8.77296 24.3741 8.71968 24.3638 8.66768C24.3552 8.62499 24.3411 8.58422 24.326 8.5441C24.3228 8.53543 24.3211 8.52612 24.3179 8.51745C24.2769 8.41955 24.2171 8.33129 24.143 8.25778C24.1427 8.25714 24.1424 8.25713 24.142 8.25649L21.3946 5.53575C21.0801 5.22407 20.572 5.22633 20.26 5.54186C19.948 5.85612 19.9505 6.36457 20.2657 6.67625L21.6267 8.02409H16.2517C15.8084 8.02409 15.4492 8.38328 15.4492 8.82657C15.4492 9.26986 15.8084 9.62906 16.2517 9.62906H21.6264L20.2657 10.9766C19.9508 11.2886 19.9483 11.7967 20.26 12.1113C20.4169 12.2699 20.6236 12.3495 20.83 12.3495C21.0342 12.3495 21.238 12.2718 21.3946 12.1167L24.142 9.39634C24.142 9.39634 24.1427 9.39569 24.143 9.39505C24.2171 9.32283 24.2772 9.23424 24.3179 9.13634Z" fill="#203A72"/>
</svg>
