<svg width="25" height="21" viewBox="0 0 25 21" fill="none" xmlns="http://www.w3.org/2000/svg">
<path d="M4.42391 6.90708V1.03451C4.42391 0.463116 3.96079 0 3.3894 0C2.818 0 2.35488 0.463116 2.35488 1.03451V6.90778C0.990365 7.34676 0 8.62678 0 10.1351C0 11.6434 0.990365 12.9235 2.35488 13.3624V19.2374C2.35488 19.8088 2.818 20.2719 3.3894 20.2719C3.96079 20.2719 4.42391 19.8088 4.42391 19.2374V13.3635C5.78981 12.9255 6.78191 11.6445 6.78191 10.1348C6.78191 8.62507 5.78981 7.34503 4.42391 6.90708Z" fill="#203A72"/>
<path d="M13.5289 9.94234V1.03451C13.5289 0.463116 13.0658 0 12.4944 0C11.923 0 11.4599 0.463116 11.4599 1.03451V9.94061C10.0937 10.3786 9.10156 11.6596 9.10156 13.1693C9.10156 14.679 10.0937 15.9601 11.4599 16.398V19.2374C11.4599 19.8088 11.923 20.2719 12.4944 20.2719C13.0658 20.2719 13.5289 19.8088 13.5289 19.2374V16.397C14.8931 15.958 15.8831 14.678 15.8831 13.1697C15.8831 11.6614 14.8928 10.3813 13.5289 9.94234Z" fill="#203A72"/>
<path d="M24.9889 7.10159C24.9889 5.59293 23.9982 4.3129 22.6337 3.87392V1.03488C22.6337 0.463482 22.1706 0.000366211 21.5992 0.000366211C21.0278 0.000366211 20.5647 0.463482 20.5647 1.03488V3.87289C19.1988 4.31118 18.207 5.59224 18.207 7.10159C18.207 8.6106 19.1988 9.89167 20.5647 10.33V19.2381C20.5647 19.8095 21.0278 20.2727 21.5992 20.2727C22.1706 20.2727 22.6337 19.8095 22.6337 19.2381V10.3293C23.9982 9.88995 24.9889 8.60991 24.9889 7.10159Z" fill="#203A72"/>
</svg>
