<svg width="50" height="38" viewBox="0 0 50 38" fill="none" xmlns="http://www.w3.org/2000/svg">
<path d="M49.2543 22.1367C48.6747 21.1087 47.7272 20.3699 46.6257 20.0661L43.9158 19.2264C43.9285 18.9411 43.9355 18.6557 43.9355 18.3728C43.9355 8.24181 35.4013 0 24.9101 0C14.4201 0 5.88471 8.24181 5.88471 18.3728C5.88471 18.7108 5.89671 19.0641 5.91637 19.4281L3.23257 20.0553C0.889907 20.7041 -0.48759 23.14 0.159907 25.4839L2.17029 32.7414C2.47976 33.8747 3.21415 34.819 4.23772 35.4005C4.91185 35.7836 5.65576 35.9789 6.41043 35.9789C6.80553 35.9789 7.20312 35.925 7.59441 35.8172L11.3735 34.7708C11.7312 34.6719 12.0274 34.4208 12.1846 34.0846C12.3406 33.7479 12.3431 33.3591 12.189 33.0217C10.2364 28.7423 8.90341 24.102 8.53051 20.2912C8.52861 20.2754 8.52227 20.2601 8.52037 20.2443C8.51783 20.2246 8.51906 20.205 8.51526 20.1853C8.51399 20.1682 8.51146 20.1447 8.51146 20.1416C8.45185 19.5207 8.42073 18.9258 8.42073 18.3728C8.42073 9.64081 15.8178 2.53672 24.9094 2.53672C34.0023 2.53672 41.3981 9.64081 41.3981 18.3728C41.3981 18.9144 41.3721 19.4661 41.3227 20.0134C41.322 20.0166 41.3226 20.0179 41.322 20.0211C41.322 20.0223 41.322 20.0236 41.322 20.0249C41.322 20.0261 41.322 20.0268 41.322 20.0268C41.3207 20.0401 41.3195 20.0553 41.3201 20.0578C41.3151 20.087 41.3112 20.1175 41.3087 20.1466C40.9656 23.8667 39.6243 28.5895 37.7179 32.8258C36.1839 34.384 34.0664 35.28 31.8664 35.28C31.5094 35.28 31.1561 35.2496 30.8061 35.2052C31.0249 34.6966 31.1466 34.1373 31.1466 33.55C31.1466 31.234 29.2624 29.3499 26.9464 29.3499H22.8737C20.5577 29.3499 18.6736 31.234 18.6736 33.55C18.6736 35.8654 20.5577 37.7496 22.8737 37.7496H26.9464C27.5869 37.7496 28.1913 37.6018 28.7341 37.3443C29.7457 37.6519 30.7946 37.8168 31.8657 37.8168C34.5673 37.8168 37.172 36.7812 39.1436 34.9687L42.227 35.8185C42.6157 35.9263 43.0071 35.9777 43.3939 35.9777C45.325 35.9777 47.1076 34.6941 47.6562 32.7389L49.6602 25.4851C49.9773 24.35 49.834 23.1609 49.2543 22.1367Z" fill="#203A72"/>
</svg>
