<svg width="22" height="23" viewBox="0 0 22 23" fill="none" xmlns="http://www.w3.org/2000/svg">
<path d="M10.6348 0C11.6579 4.45852e-05 12.5029 0.749698 12.6572 1.72949H13.3086C15.1403 1.72957 16.6259 3.6118 16.626 5.93457V9.02246C16.626 10.0182 16.9354 10.967 17.4883 11.668L20.8379 15.915C21.1142 16.2654 21.2694 16.7426 21.2695 17.2373V18.4805C21.2695 18.9992 20.941 19.415 20.5322 19.415H14.4209C13.9828 21.098 12.453 22.3408 10.6328 22.3408C8.81268 22.3408 7.28282 21.098 6.84473 19.415H0.736328C0.33105 19.4148 -2.26663e-08 18.999 0 18.4805V17.2373C9.4381e-05 16.7421 0.154323 16.2654 0.430664 15.915L3.78125 11.668C4.3341 10.967 4.64746 10.0182 4.64746 9.02246V5.93457C4.6475 3.61192 6.13229 1.72975 7.96387 1.72949H8.6123C8.76661 0.749682 9.6116 0 10.6348 0Z" fill="#203A72"/>
</svg>
