<svg width="39" height="38" viewBox="0 0 39 38" fill="none" xmlns="http://www.w3.org/2000/svg">
<path d="M2.24414 9.76562C7.13489 0.721964 18.4326 -2.64628 27.4766 2.24414C30.5027 3.88076 32.8886 6.23975 34.5459 8.9873L35.4932 1.58008C35.5989 0.757357 36.352 0.175249 37.1748 0.280273C37.9454 0.379163 38.5064 1.04565 38.4873 1.80664L38.4756 1.95996L36.916 14.1465L36.7227 15.6758L36.2148 15.5977L23.0566 13.5625C22.2373 13.4356 21.6739 12.6684 21.8008 11.8477C21.928 11.0287 22.6951 10.4659 23.5146 10.5918H23.5156L32.7607 12.0215C31.3945 9.08557 29.1136 6.54735 26.0469 4.88867C18.4632 0.787899 8.99 3.61114 4.88867 11.1943C0.787774 18.7781 3.61076 28.2503 11.1943 32.3516C18.7779 36.4524 28.2502 33.6299 32.3516 26.0469C32.7217 25.3631 33.5461 25.0809 34.249 25.373L34.3877 25.4395L34.5195 25.5195C35.1491 25.9476 35.3648 26.7922 34.9951 27.4766C30.1042 36.5197 18.8092 39.8852 9.76562 34.9951C0.721958 30.1045 -2.64598 18.8096 2.24414 9.76562ZM33.9629 25.8008C34.0268 25.8203 34.0895 25.847 34.1504 25.8799C34.1808 25.8963 34.2102 25.9137 34.2383 25.9326C34.2102 25.9135 34.1809 25.8954 34.1504 25.8789C34.0896 25.8461 34.0266 25.82 33.9629 25.8008ZM22.3652 12.4756C22.3837 12.5181 22.4047 12.5593 22.4287 12.5986C22.4047 12.5593 22.3836 12.5181 22.3652 12.4756ZM22.3184 12.3398C22.3278 12.3745 22.3395 12.4082 22.3525 12.4414C22.3396 12.4082 22.3278 12.3745 22.3184 12.3398ZM22.291 12.1992C22.2952 12.2333 22.302 12.2667 22.3096 12.2998C22.302 12.2667 22.2952 12.2333 22.291 12.1992ZM22.2832 12.1211C22.2838 12.1349 22.286 12.1485 22.2871 12.1621C22.2834 12.1174 22.2818 12.0721 22.2842 12.0264L22.2832 12.1211ZM4.45801 7.31641V7.31738V7.31641ZM8.24121 6.29199C8.16093 6.35953 8.08201 6.42881 8.00293 6.49805C8.1808 6.34232 8.36107 6.19009 8.54492 6.04297L8.24121 6.29199ZM27.2383 2.68457C27.4521 2.8002 27.6628 2.91923 27.8701 3.04199L27.2383 2.68359C27.1009 2.60928 26.9627 2.53727 26.8242 2.4668L27.2383 2.68457ZM9.45898 2.9873C9.33313 3.06089 9.20817 3.13619 9.08398 3.21289H9.08496C9.20916 3.1362 9.33412 3.06091 9.45996 2.9873H9.45898ZM10.1201 2.62012C10.0636 2.65003 10.0074 2.68042 9.95117 2.71094C10.0074 2.68038 10.0636 2.65007 10.1201 2.62012ZM12.209 1.67578C12.0736 1.72693 11.9388 1.77961 11.8047 1.83398C11.6702 1.8885 11.5365 1.9451 11.4033 2.00293C11.6697 1.88746 11.9387 1.7784 12.21 1.67578H12.209ZM23.8105 1.25879C24.0075 1.31807 24.2036 1.38185 24.3994 1.44824C24.3602 1.4349 24.3215 1.42019 24.2822 1.40723C24.1254 1.35544 23.9681 1.30611 23.8105 1.25879ZM37.249 0.804688C37.237 0.801414 37.2251 0.797766 37.2129 0.794922L37.1113 0.776367C37.1585 0.782421 37.2044 0.7925 37.249 0.804688Z" fill="#203A72"/>
</svg>
