<svg width="30" height="40" viewBox="0 0 30 40" fill="none" xmlns="http://www.w3.org/2000/svg">
<path d="M28.3356 8.56674H21.0977V1.32349L28.3356 8.56674Z" fill="#203A72"/>
<path d="M21.0462 11.2143C19.6161 11.2143 18.4518 10.0495 18.4518 8.61992V0H1.27024C0.571332 0 0 0.571849 0 1.27076V38.2812C0 38.9802 0.571332 39.552 1.27024 39.552H28.3901C29.0943 39.552 29.6608 38.9802 29.6608 38.2812V11.2143H21.0462ZM7.31109 13.507H17.3394C18.0695 13.507 18.6631 14.1 18.6631 14.8307C18.6631 15.5614 18.0695 16.1544 17.3394 16.1544H7.31109C6.58041 16.1544 5.98739 15.5614 5.98739 14.8307C5.98739 14.1 6.58041 13.507 7.31109 13.507ZM22.3535 30.9851H7.31109C6.58041 30.9851 5.98739 30.392 5.98739 29.6614C5.98739 28.9307 6.58041 28.3377 7.31109 28.3377H22.3535C23.0842 28.3377 23.6772 28.9307 23.6772 29.6614C23.6772 30.392 23.0842 30.9851 22.3535 30.9851ZM22.3535 23.5724H7.31109C6.58041 23.5724 5.98739 22.9793 5.98739 22.2487C5.98739 21.518 6.58041 20.925 7.31109 20.925H22.3535C23.0842 20.925 23.6772 21.518 23.6772 22.2487C23.6772 22.9793 23.0842 23.5724 22.3535 23.5724Z" fill="#203A72"/>
</svg>
