<svg width="43" height="33" viewBox="0 0 43 33" fill="none" xmlns="http://www.w3.org/2000/svg">
<path d="M41.9772 18.8661C41.4832 17.99 40.6757 17.3603 39.7369 17.1014L37.4274 16.3858C37.4382 16.1426 37.4442 15.8994 37.4442 15.6583C37.4442 7.02411 30.1709 0 21.2297 0C12.2896 0 5.01527 7.02411 5.01527 15.6583C5.01527 15.9464 5.0255 16.2474 5.04225 16.5577L2.75497 17.0922C0.758427 17.6451 -0.415551 19.7211 0.136282 21.7187L1.84963 27.904C2.11339 28.8699 2.73927 29.6746 3.61161 30.1702C4.18614 30.4967 4.82014 30.6632 5.46332 30.6632C5.80004 30.6632 6.13889 30.6172 6.47237 30.5254L9.69309 29.6336C9.99792 29.5492 10.2504 29.3352 10.3844 29.0488C10.5174 28.7618 10.5195 28.4304 10.3882 28.1429C8.72401 24.4957 7.58796 20.541 7.27016 17.2933C7.26854 17.2798 7.26314 17.2668 7.26151 17.2533C7.25935 17.2365 7.2604 17.2198 7.25716 17.203C7.25608 17.1884 7.25393 17.1684 7.25393 17.1657C7.20312 16.6366 7.1766 16.1296 7.1766 15.6583C7.1766 8.21641 13.4808 2.16193 21.2291 2.16193C28.9786 2.16193 35.2817 8.21641 35.2817 15.6583C35.2817 16.1199 35.2596 16.5901 35.2174 17.0565C35.2169 17.0592 35.2174 17.0603 35.2168 17.063C35.2168 17.0641 35.2168 17.0652 35.2168 17.0663C35.2168 17.0673 35.2168 17.0679 35.2168 17.0679C35.2157 17.0792 35.2147 17.0922 35.2152 17.0944C35.2109 17.1192 35.2076 17.1452 35.2055 17.17C34.9131 20.3405 33.77 24.3655 32.1453 27.9759C30.8378 29.3039 29.0332 30.0676 27.1583 30.0676C26.854 30.0676 26.5529 30.0416 26.2546 30.0038C26.4411 29.5703 26.5448 29.0936 26.5448 28.5931C26.5448 26.6193 24.939 25.0135 22.9652 25.0135H19.4942C17.5204 25.0135 15.9146 26.6193 15.9146 28.5931C15.9146 30.5664 17.5204 32.1722 19.4942 32.1722H22.9652C23.5111 32.1722 24.0261 32.0463 24.4888 31.8268C25.3509 32.089 26.2448 32.2295 27.1577 32.2295C29.4601 32.2295 31.6799 31.3469 33.3603 29.8022L35.9881 30.5264C36.3194 30.6183 36.6529 30.6621 36.9826 30.6621C38.6284 30.6621 40.1477 29.5682 40.6152 27.9019L42.3231 21.7198C42.5934 20.7523 42.4712 19.739 41.9772 18.8661Z" fill="#203A72"/>
</svg>
