<svg width="33" height="22" viewBox="0 0 33 22" fill="none" xmlns="http://www.w3.org/2000/svg">
<path d="M26.2674 4.77866H21.3756V0H0V17.8404H4.62637C4.62637 19.7474 6.17231 21.2934 8.07934 21.2934C9.98636 21.2934 11.5323 19.7474 11.5323 17.8404H19.3306H21.3756H22.5266C22.5266 19.7474 24.0725 21.2934 25.9795 21.2934C27.8866 21.2934 29.4325 19.7474 29.4325 17.8404H32.3409V11.1605L26.2674 4.77866ZM8.07934 19.4846C7.17133 19.4846 6.4351 18.7485 6.4351 17.8404C6.4351 16.9323 7.17133 16.1962 8.07934 16.1962C8.98734 16.1962 9.72357 16.9323 9.72357 17.8404C9.72357 18.7484 8.98734 19.4846 8.07934 19.4846ZM25.9795 19.4846C25.0715 19.4846 24.3353 18.7485 24.3353 17.8404C24.3353 16.9323 25.0715 16.1962 25.9795 16.1962C26.8875 16.1962 27.6238 16.9323 27.6238 17.8404C27.6238 18.7484 26.8875 19.4846 25.9795 19.4846ZM23.4775 10.0044V6.79804H25.8768L28.9132 10.0044H23.4775Z" fill="white"/>
</svg>
