<svg width="17" height="29" viewBox="0 0 17 29" fill="none" xmlns="http://www.w3.org/2000/svg">
<path d="M7.32269 28.5764V0H9.15337V28.5764H7.32269ZM13.4845 8.57291C13.3505 7.44176 12.8073 6.56364 11.8547 5.93853C10.9022 5.31342 9.73382 5.00086 8.34966 5.00086C7.33758 5.00086 6.45201 5.16458 5.69295 5.49202C4.94133 5.81946 4.35343 6.26969 3.92925 6.8427C3.51251 7.41572 3.30414 8.06687 3.30414 8.79616C3.30414 9.40639 3.44926 9.93103 3.73949 10.3701C4.03716 10.8017 4.41669 11.1626 4.87808 11.4529C5.33946 11.7357 5.82318 11.9701 6.32922 12.1561C6.83526 12.3347 7.30037 12.4798 7.72455 12.5915L10.0464 13.2166C10.6417 13.3728 11.304 13.5887 12.0333 13.864C12.7701 14.1393 13.4733 14.5152 14.1431 14.9914C14.8203 15.4603 15.3784 16.063 15.8175 16.7998C16.2565 17.5365 16.4761 18.4407 16.4761 19.5123C16.4761 20.7476 16.1523 21.8639 15.5049 22.8611C14.8649 23.8583 13.9273 24.6508 12.6919 25.2387C11.464 25.8266 9.97196 26.1206 8.2157 26.1206C6.57852 26.1206 5.16086 25.8564 3.96274 25.328C2.77206 24.7997 1.83439 24.0629 1.14975 23.1178C0.472552 22.1727 0.0893011 21.0751 0 19.8249H2.85764C2.93205 20.6881 3.22228 21.4025 3.72832 21.9681C4.2418 22.5262 4.88924 22.943 5.67062 23.2183C6.45945 23.4862 7.30781 23.6202 8.2157 23.6202C9.27244 23.6202 10.2213 23.449 11.0622 23.1067C11.9031 22.7569 12.5691 22.2732 13.0603 21.6555C13.5514 21.0304 13.797 20.3011 13.797 19.4676C13.797 18.7086 13.5849 18.0909 13.1608 17.6147C12.7366 17.1384 12.1784 16.7514 11.4864 16.4537C10.7943 16.1561 10.0464 15.8956 9.24267 15.6724L6.42968 14.8686C4.64366 14.3552 3.22972 13.6221 2.18788 12.6696C1.14603 11.7171 0.625108 10.4706 0.625108 8.93011C0.625108 7.65013 0.97115 6.53387 1.66323 5.58132C2.36276 4.62134 3.30042 3.87716 4.47622 3.34879C5.65946 2.81299 6.98037 2.54508 8.43896 2.54508C9.91243 2.54508 11.2222 2.80927 12.3682 3.33763C13.5142 3.85855 14.4221 4.57296 15.0919 5.48086C15.7691 6.38875 16.1263 7.41944 16.1635 8.57291H13.4845Z" fill="white"/>
</svg>
