<svg width="36" height="24" viewBox="0 0 36 24" fill="none" xmlns="http://www.w3.org/2000/svg">
<path d="M29.2472 5.32077H23.8005V0H0V19.8643H5.1512C5.1512 21.9876 6.87252 23.709 8.99589 23.709C11.1193 23.709 12.8406 21.9876 12.8406 19.8643H21.5235H23.8005H25.0821C25.0821 21.9876 26.8034 23.709 28.9268 23.709C31.0501 23.709 32.7714 21.9876 32.7714 19.8643H36.0098V12.4266L29.2472 5.32077ZM8.99589 21.695C7.98487 21.695 7.16513 20.8754 7.16513 19.8643C7.16513 18.8531 7.98487 18.0335 8.99589 18.0335C10.0069 18.0335 10.8266 18.8531 10.8266 19.8643C10.8266 20.8753 10.0069 21.695 8.99589 21.695ZM28.9268 21.695C27.9157 21.695 27.096 20.8754 27.096 19.8643C27.096 18.8531 27.9157 18.0335 28.9268 18.0335C29.9378 18.0335 30.7575 18.8531 30.7575 19.8643C30.7575 20.8753 29.9378 21.695 28.9268 21.695ZM26.1409 11.1393V7.56923H28.8124L32.1932 11.1393H26.1409Z" fill="#9CADC0"/>
</svg>
