<svg width="10" height="12" viewBox="0 0 10 12" fill="none" xmlns="http://www.w3.org/2000/svg">
<path d="M8.85748 3.31325C8.85717 3.31278 8.85686 3.31246 8.85655 3.31215C8.86217 3.30699 8.86873 3.30308 8.8742 3.29761L9.59072 2.58313C9.77419 2.40045 9.7745 2.10353 9.59166 1.92022C9.40882 1.73659 9.1119 1.73627 8.92874 1.91927L8.21222 2.63376C8.20722 2.63876 8.20379 2.6447 8.19894 2.65001C8.19863 2.6497 8.19831 2.64939 8.198 2.64908C7.33068 1.92709 6.21644 1.4928 4.99906 1.4928C3.77856 1.4928 2.66276 1.92866 1.79544 2.65393C1.79513 2.65424 1.79482 2.65455 1.7945 2.65486C1.78982 2.6497 1.78622 2.64376 1.78122 2.63861L1.07048 1.93349C0.886229 1.75128 0.589779 1.75238 0.407407 1.93615C0.225034 2.12009 0.226289 2.41685 0.410068 2.59922L1.1208 3.30434C1.12627 3.30981 1.13284 3.31355 1.13846 3.31871C1.13815 3.31902 1.13784 3.31933 1.13768 3.31965C0.426634 4.18384 0 5.28871 0 6.49374C0 9.25511 2.23785 11.493 4.99922 11.493C7.76059 11.493 10 9.25511 10 6.49374C9.99984 5.28543 9.57166 4.17744 8.85748 3.31325ZM7.49946 6.88427H5.00063C4.78341 6.88427 4.60994 6.70924 4.60994 6.49358V3.99319C4.60994 3.77737 4.78341 3.6025 5.00063 3.6025C5.21629 3.6025 5.39132 3.77737 5.39132 3.99319V6.10289H7.49946C7.71512 6.10289 7.89014 6.2762 7.89014 6.49358C7.89014 6.70908 7.71512 6.88427 7.49946 6.88427Z" fill="#203A72"/>
<path d="M4.43367 0.937647H5.56869C5.82764 0.937647 6.03751 0.72777 6.03751 0.468823C6.03751 0.209877 5.82764 0 5.56869 0H4.43367C4.17472 0 3.96484 0.209877 3.96484 0.468823C3.96484 0.72777 4.17472 0.937647 4.43367 0.937647Z" fill="#203A72"/>
</svg>
