<svg width="32" height="31" viewBox="0 0 32 31" fill="none" xmlns="http://www.w3.org/2000/svg">
<path d="M26.8677 29.2508C28.9062 27.4881 29.1529 24.6451 29.1644 23.5049C29.1644 23.5036 29.1644 23.5019 29.1644 23.5006C29.1644 23.366 29.103 23.2393 28.998 23.1555C28.0904 22.4323 27.1143 21.7779 26.0977 21.2109C25.0745 20.64 23.9939 20.1489 22.8872 19.7509C22.7822 19.7134 22.6666 19.7169 22.5643 19.7606C22.0392 19.9861 20.7459 20.6709 20.0734 22.1601C19.8868 22.5726 19.7659 23.0046 19.7112 23.4507C17.4617 22.5779 15.3358 21.4293 13.3833 20.031C11.467 18.6592 9.72411 17.0509 8.19477 15.2449C8.59806 15.0477 8.96693 14.7922 9.29609 14.4811C10.4848 13.3573 10.7094 11.9126 10.75 11.3434C10.7588 11.234 10.724 11.1224 10.6542 11.035C9.91825 10.1199 9.10107 9.25945 8.22609 8.47669C7.3564 7.7001 6.41919 6.99147 5.44096 6.3702C5.3258 6.29739 5.18415 6.28193 5.05619 6.32738C3.72188 6.80348 1.33918 7.96262 0.375505 10.3745C0.126643 10.9966 1.10545e-06 11.6391 1.07513e-06 12.3327C1.02205e-06 13.547 0.388289 14.9179 1.18606 16.6101C4.69173 24.0446 12.5375 29.6351 20.7088 30.5207C23.6307 30.8371 25.4725 30.4567 26.8677 29.2508Z" fill="#203A72"/>
<path d="M29.7994 12.7616C29.9 13.363 30.4687 13.7681 31.0693 13.6684C31.6698 13.5686 32.0749 13.0029 31.9756 12.398C30.6254 4.32547 22.9601 -1.14415 14.8871 0.204291C14.3475 0.294745 13.9658 0.762 13.9658 1.29105C13.9658 1.3515 13.9707 1.4124 13.9808 1.47461C14.0814 2.07514 14.6497 2.48108 15.2507 2.38047C22.1239 1.23148 28.6504 5.88881 29.7994 12.7616Z" fill="#203A72"/>
<path d="M16.0334 7.05944C20.3262 6.34242 24.4029 9.25109 25.1203 13.5435C25.2209 14.144 25.7897 14.55 26.3902 14.4494C26.9907 14.3492 27.3932 13.7813 27.2965 13.1799C26.3783 7.68687 21.1628 3.96544 15.6698 4.88323C15.1302 4.97368 14.7485 5.44096 14.7485 5.97001C14.7485 6.03046 14.7533 6.09134 14.7635 6.15355C14.8641 6.75452 15.4328 7.16048 16.0334 7.05944Z" fill="#203A72"/>
</svg>
