<svg width="36" height="28" viewBox="0 0 36 28" fill="none" xmlns="http://www.w3.org/2000/svg">
<path d="M10.2324 17.767C10.6824 19.612 10.9674 20.831 10.9674 20.831" stroke="#313133" stroke-width="1.5" stroke-miterlimit="10" stroke-linecap="round" stroke-linejoin="round"/>
<path d="M0.75 0.75C0.75 0.75 2.995 0.75 4.377 0.75C4.991 0.75 5.683 1.455 6.088 2.614C6.768 4.555 9.5592 15.1713 10.3402 18.1223" stroke="#313133" stroke-width="1.5" stroke-miterlimit="10" stroke-linecap="round" stroke-linejoin="round"/>
<path d="M10.9688 20.831H28.9717" stroke="#313133" stroke-width="1.5" stroke-miterlimit="10" stroke-linecap="round" stroke-linejoin="round"/>
<path d="M10.5273 17.768C10.5273 17.768 22.8143 17.768 28.3623 17.768C30.0813 17.768 31.6543 16.446 32.2493 14.675C32.9373 12.635 33.8253 9.133 34.4613 7.242C34.9403 5.818 34.0963 3.953 32.3003 3.953C26.6233 3.953 6.53125 3.953 6.53125 3.953" stroke="#313133" stroke-width="1.5" stroke-miterlimit="10" stroke-linecap="round" stroke-linejoin="round"/>
<path d="M13.7126 23.575C13.7126 25.089 12.4836 26.317 10.9676 26.317C9.45262 26.317 8.22461 25.088 8.22461 23.575C8.22461 22.057 9.45362 20.831 10.9676 20.831C12.4836 20.831 13.7126 22.058 13.7126 23.575Z" stroke="#313133" stroke-width="1.5" stroke-miterlimit="10" stroke-linecap="round" stroke-linejoin="round"/>
<path d="M31.7165 23.575C31.7165 25.089 30.4885 26.317 28.9725 26.317C27.4565 26.317 26.2285 25.088 26.2285 23.575C26.2285 22.057 27.4575 20.831 28.9725 20.831C30.4885 20.831 31.7165 22.058 31.7165 23.575Z" stroke="#313133" stroke-width="1.5" stroke-miterlimit="10" stroke-linecap="round" stroke-linejoin="round"/>
</svg>
