<svg width="16" height="22" viewBox="0 0 16 22" fill="none" xmlns="http://www.w3.org/2000/svg">
<path d="M9.77302 18.8602H5.12427C3.38013 17.7761 2.17969 15.5092 2.17969 12.8893C2.17969 11.1981 2.67918 9.65538 3.50252 8.48218" stroke="white" stroke-miterlimit="10" stroke-linecap="round" stroke-linejoin="round"/>
<path d="M14.5954 12.6254C14.5954 16.13 12.9906 19.1616 10.6575 20.6124H4.43896C2.106 19.1624 0.5 16.13 0.5 12.6254C0.5 10.3632 1.16805 8.29944 2.26961 6.73022H12.8268C13.9273 8.29944 14.5954 10.3632 14.5954 12.6254Z" stroke="white" stroke-miterlimit="10" stroke-linecap="round" stroke-linejoin="round"/>
<path d="M9.6996 4.51538H5.39062V6.73036H9.6996V4.51538Z" stroke="white" stroke-miterlimit="10" stroke-linecap="round" stroke-linejoin="round"/>
<path d="M8.18802 1.48071H6.89844V4.51532H8.18802V1.48071Z" stroke="white" stroke-miterlimit="10" stroke-linecap="round" stroke-linejoin="round"/>
<path d="M14.8926 2.46099C14.8926 2.46099 11.5851 1.47086 11.0883 1.47086C10.5914 1.47086 5.53906 1.47086 5.53906 1.47086V0.5C5.53906 0.5 10.6367 0.5 11.1033 0.5C11.5697 0.5 14.8926 1.49014 14.8926 1.49014V2.46099Z" stroke="white" stroke-miterlimit="10" stroke-linecap="round" stroke-linejoin="round"/>
</svg>
