<svg width="17" height="19" viewBox="0 0 17 19" fill="none" xmlns="http://www.w3.org/2000/svg">
<path d="M14.2602 5.33417C14.2597 5.33342 14.2592 5.33291 14.2587 5.33241C14.2678 5.3241 14.2783 5.31781 14.2871 5.309L15.4407 4.15872C15.7361 3.8646 15.7366 3.38657 15.4422 3.09145C15.1478 2.79582 14.6698 2.79531 14.3749 3.08993L13.2214 4.24023C13.2133 4.24828 13.2078 4.25784 13.2 4.26639C13.1995 4.26589 13.199 4.26539 13.1985 4.26489C11.8021 3.10252 10.0082 2.40332 8.0483 2.40332C6.08334 2.40332 4.28694 3.10503 2.89059 4.27269C2.89008 4.27319 2.88959 4.27369 2.88908 4.2742C2.88153 4.26589 2.87574 4.25633 2.86769 4.24803L1.72342 3.11282C1.42679 2.81946 0.949521 2.82123 0.655909 3.11711C0.362296 3.41323 0.364317 3.89101 0.660193 4.18462L1.80444 5.31983C1.81325 5.32863 1.82383 5.33467 1.83288 5.34297C1.83238 5.34347 1.83188 5.34397 1.83162 5.34448C0.686864 6.7358 0 8.51459 0 10.4546C0 14.9003 3.60285 18.5032 8.04854 18.5032C12.4942 18.5032 16.0996 14.9003 16.0996 10.4546C16.0994 8.50931 15.41 6.7255 14.2602 5.33417ZM12.0738 11.0834H8.05082C7.7011 11.0834 7.42183 10.8016 7.42183 10.4544V6.42885C7.42183 6.0814 7.7011 5.79986 8.05082 5.79986C8.39802 5.79986 8.67981 6.0814 8.67981 6.42885V9.8254H12.0738C12.421 9.8254 12.7028 10.1044 12.7028 10.4544C12.7028 10.8013 12.421 11.0834 12.0738 11.0834Z" fill="#203A72"/>
<path d="M7.13369 1.50957H8.96103C9.37793 1.50957 9.71582 1.17168 9.71582 0.754787C9.71582 0.337893 9.37793 0 8.96103 0H7.13369C6.7168 0 6.37891 0.337893 6.37891 0.754787C6.37891 1.17168 6.7168 1.50957 7.13369 1.50957Z" fill="#203A72"/>
</svg>
