<svg width="22" height="29" viewBox="0 0 22 29" fill="none" xmlns="http://www.w3.org/2000/svg">
<path d="M20.3774 6.16149H15.1719V0.952148L20.3774 6.16149Z" fill="#203A72"/>
<path d="M15.1364 8.06533C14.1079 8.06533 13.2705 7.22759 13.2705 6.19943V0H0.913557C0.410901 0 0 0.411273 0 0.913928V27.5318C0 28.0345 0.410901 28.4457 0.913557 28.4457H20.4181C20.9246 28.4457 21.332 28.0345 21.332 27.5318V8.06533H15.1364ZM5.25812 9.7142H12.4704C12.9956 9.7142 13.4224 10.1407 13.4224 10.6662C13.4224 11.1917 12.9956 11.6182 12.4704 11.6182H5.25812C4.73262 11.6182 4.30612 11.1917 4.30612 10.6662C4.30612 10.1407 4.73262 9.7142 5.25812 9.7142ZM16.0766 22.2844H5.25812C4.73262 22.2844 4.30612 21.8579 4.30612 21.3324C4.30612 20.8069 4.73262 20.3804 5.25812 20.3804H16.0766C16.6021 20.3804 17.0286 20.8069 17.0286 21.3324C17.0286 21.8579 16.6021 22.2844 16.0766 22.2844ZM16.0766 16.9532H5.25812C4.73262 16.9532 4.30612 16.5267 4.30612 16.0012C4.30612 15.4757 4.73262 15.0492 5.25812 15.0492H16.0766C16.6021 15.0492 17.0286 15.4757 17.0286 16.0012C17.0286 16.5267 16.6021 16.9532 16.0766 16.9532Z" fill="#203A72"/>
</svg>
