<svg width="22" height="23" viewBox="0 0 22 23" fill="none" xmlns="http://www.w3.org/2000/svg">
<path d="M10.6367 0C11.6599 0 12.5049 0.749693 12.6592 1.72949H13.3096C15.1412 1.72964 16.6259 3.61184 16.626 5.93457V9.02246C16.626 10.0182 16.9364 10.967 17.4893 11.668L20.8389 15.915C21.1152 16.2654 21.2704 16.7426 21.2705 17.2373V18.4805C21.2705 18.9992 20.9419 19.415 20.5332 19.415H14.4229C13.9847 21.098 12.4549 22.3408 10.6348 22.3408C8.81463 22.3408 7.28477 21.098 6.84668 19.415H0.737305C0.331982 19.4149 -2.26682e-08 18.9991 0 18.4805V17.2373C9.14417e-05 16.7421 0.155297 16.2654 0.431641 15.915L3.78223 11.668C4.33506 10.967 4.64844 10.0182 4.64844 9.02246V5.93457C4.64847 3.61187 6.13322 1.72969 7.96484 1.72949H8.61426C8.76854 0.749723 9.61362 8.81197e-05 10.6367 0Z" fill="#203A72"/>
</svg>
