<svg width="18" height="26" viewBox="0 0 18 26" fill="none" xmlns="http://www.w3.org/2000/svg">
<path d="M8.91533 0C3.99365 0 0 3.98843 0 8.91011C0 12.8256 5.63072 21.7774 7.94036 25.2862C8.40438 25.99 9.42626 25.99 9.88506 25.2862C12.1999 21.7774 17.8254 12.8256 17.8254 8.91011C17.8254 3.98843 13.837 0 8.91533 0ZM8.91533 12.9246C6.69953 12.9246 4.90082 11.1259 4.90082 8.91011C4.90082 6.69431 6.69953 4.90082 8.91533 4.90082C11.1311 4.90082 12.9241 6.69431 12.9241 8.91011C12.9241 11.1259 11.1311 12.9246 8.91533 12.9246Z" fill="#203A72"/>
</svg>
