<svg width="38" height="40" viewBox="0 0 38 40" fill="none" xmlns="http://www.w3.org/2000/svg">
<path d="M18.9844 0C20.8109 9.87165e-05 22.3243 1.33776 22.5996 3.08691H23.7578C27.0277 3.08691 29.6795 6.44731 29.6797 10.5938V16.1074C29.6798 17.8849 30.2329 19.577 31.2197 20.8281L37.2002 28.4111C37.6935 29.0367 37.9697 29.8883 37.9697 30.7715V32.9902C37.9697 33.916 37.3838 34.6589 36.6543 34.6592H25.7471C24.9648 37.6631 22.2342 39.8807 18.9854 39.8809C15.7364 39.8809 13.006 37.6632 12.2236 34.6592H1.31543C0.591882 34.6589 -4.04654e-08 33.916 0 32.9902V30.7715C3.64325e-05 29.8874 0.276208 29.0367 0.769531 28.4111L6.75 20.8281C7.73685 19.577 8.29681 17.8849 8.29688 16.1074V10.5938C8.29703 6.44744 10.948 3.08712 14.2178 3.08691H15.3682C15.6435 1.33765 17.1578 0 18.9844 0Z" fill="#203A72"/>
</svg>
