<svg width="43" height="36" viewBox="0 0 43 36" fill="none" xmlns="http://www.w3.org/2000/svg">
<path d="M42.4688 33.9365C42.4688 34.5642 41.9599 35.0742 41.3311 35.0742H1.1377C0.509998 35.0742 -2.74375e-08 34.5642 0 33.9365V13.4414H42.4688V33.9365ZM2.96875 25.2148V30.5156H8.27051V25.2148H2.96875ZM10.624 25.2148V30.5156H15.9248V25.2148H10.624ZM18.2793 25.2148V30.5156H23.5801V25.2148H18.2793ZM25.9307 25.2148V30.5156H31.2314V25.2148H25.9307ZM33.5859 25.2148V30.5156H38.8867V25.2148H33.5859ZM2.96875 17.0078V22.3096H8.27051V17.0078H2.96875ZM10.624 17.0078V22.3096H15.9248V17.0078H10.624ZM18.2793 17.0078V22.3096H23.5801V17.0078H18.2793ZM25.9307 17.0078V22.3096H31.2314V17.0078H25.9307ZM33.5859 17.0078V22.3096H38.8867V17.0078H33.5859ZM36.4023 0C37.3444 0.000106175 38.1074 0.764004 38.1074 1.70605V4.73926H41.332C41.96 4.73948 42.4686 5.24856 42.4688 5.87598V11.6533H0V5.87598C0.000168003 5.24842 0.510102 4.73926 1.1377 4.73926H4.36133V1.70605C4.36133 0.763944 5.12527 8.2029e-06 6.06738 0C7.0095 4.11814e-08 7.77344 0.763939 7.77344 1.70605V4.73926H34.6963V1.70605C34.6963 0.763939 35.4602 -4.11812e-08 36.4023 0Z" fill="#203A72"/>
</svg>
