<svg width="22" height="19" viewBox="0 0 22 19" fill="none" xmlns="http://www.w3.org/2000/svg">
<path d="M3 15.4131H21.043V18.4131H0V0H3V15.4131ZM18.9365 2.25781C19.327 1.86746 19.961 1.86762 20.3516 2.25781C20.7417 2.64824 20.7417 3.28141 20.3516 3.67188L14.7295 9.29395C14.5382 9.48521 14.2773 9.59102 14.0068 9.58691C13.7363 9.58263 13.4782 9.46866 13.293 9.27148L10.6396 6.44727L6.18066 10.8145C5.78608 11.2009 5.15302 11.1944 4.7666 10.7998C4.38085 10.4052 4.38787 9.77194 4.78223 9.38574L9.9707 4.30469L10.0459 4.23828C10.2279 4.0928 10.4564 4.01469 10.6914 4.01953C10.9599 4.02524 11.2155 4.13837 11.3994 4.33398L14.0439 7.14941L18.9365 2.25781Z" fill="white"/>
</svg>
