<svg width="22" height="22" viewBox="0 0 22 22" fill="none" xmlns="http://www.w3.org/2000/svg">
<path d="M20.9396 8.9938H20.2857C20.2854 6.17471 18.7318 3.55235 16.1297 1.98041C16.0102 1.9084 15.8791 1.87592 15.7488 1.87347C15.5904 0.817538 14.6764 0 13.5781 0H8.39623C7.32713 0 6.43115 0.774019 6.2381 1.78919C6.10481 1.78736 5.96937 1.81771 5.84558 1.8891C3.14723 3.4494 1.53636 6.10607 1.53606 8.9938H0.881543C0.332741 8.9938 -0.0836893 9.49357 0.0143657 10.0329L1.90468 20.5643C1.98129 20.9844 2.34593 21.2908 2.77217 21.2908H19.0493C19.4752 21.2908 19.8399 20.9844 19.9165 20.5643L21.8071 10.0329C21.9048 9.49357 21.4881 8.9938 20.9396 8.9938ZM6.49274 3.28975C6.87332 3.94856 7.58422 4.39563 8.39593 4.39563H13.5778C14.361 4.39563 15.0502 3.9792 15.4396 3.35777C17.5154 4.65547 18.753 6.75293 18.7533 8.9938H3.06786C3.06817 6.70207 4.34687 4.58132 6.49274 3.28975ZM7.53366 17.3162C7.53366 17.7391 7.19046 18.0823 6.7676 18.0823C6.34168 18.0823 6.00155 17.7391 6.00155 17.3162V12.6218C6.00155 12.199 6.34168 11.8558 6.7676 11.8558C7.19046 11.8558 7.53366 12.199 7.53366 12.6218V17.3162ZM11.7531 17.3162C11.7531 17.7391 11.4099 18.0823 10.987 18.0823C10.5642 18.0823 10.221 17.7391 10.221 17.3162V12.6218C10.221 12.199 10.5642 11.8558 10.987 11.8558C11.4099 11.8558 11.7531 12.199 11.7531 12.6218V17.3162ZM15.9725 17.3162C15.9725 17.7391 15.6324 18.0823 15.2065 18.0823C14.7836 18.0823 14.4404 17.7391 14.4404 17.3162V12.6218C14.4404 12.199 14.7836 11.8558 15.2065 11.8558C15.6324 11.8558 15.9725 12.199 15.9725 12.6218V17.3162Z" fill="white"/>
</svg>
