<svg width="31" height="31" viewBox="0 0 31 31" fill="none" xmlns="http://www.w3.org/2000/svg">
<path d="M28.4156 12.0125H26.2893C26.076 11.3438 25.8024 10.6938 25.4711 10.0761L26.9818 8.56116C27.9041 7.64056 27.9053 6.14048 26.9843 5.21733L25.5548 3.79118C24.6622 2.89776 23.1048 2.89904 22.213 3.79245L20.6756 5.33203C20.066 5.01511 19.4232 4.75299 18.7575 4.54865V2.36545C18.7575 1.06249 17.6967 0.00127449 16.392 0L14.3741 0.00127055C13.0729 0.00127055 12.0137 1.06207 12.0137 2.36545L12.0159 4.55417C11.3438 4.76021 10.7002 5.02276 10.0969 5.33841L8.55946 3.79883C7.66562 2.90626 6.1116 2.90881 5.21819 3.8001L3.78991 5.22498C2.8727 6.14643 2.87269 7.64777 3.79032 8.57135L5.30697 10.0833C4.9739 10.7019 4.69988 11.3523 4.48874 12.0227L2.36332 12.0244C1.06037 12.0244 0 13.0864 0 14.3919L0.00212622 16.409C0.00212622 17.7099 1.06164 18.7681 2.36459 18.7681L4.44372 18.7694C4.65444 19.4699 4.92462 20.1403 5.24961 20.7665L3.79626 22.2207C2.87608 23.1426 2.87821 24.6439 3.80051 25.5679L5.22539 26.9898C6.11881 27.8832 7.67581 27.8815 8.5688 26.9881L9.99707 25.5616C10.6428 25.9061 11.3217 26.1877 12.0218 26.4014V28.4164C12.0218 29.7202 13.0847 30.781 14.3902 30.781L16.4078 30.7797C17.7099 30.7797 18.7702 29.7198 18.7702 28.4164L18.7681 26.3985C19.481 26.178 20.1586 25.8959 20.7903 25.5569L22.2224 26.9847C23.1137 27.8743 24.6702 27.8739 25.5654 26.9796L26.9894 25.5552C27.4363 25.1095 27.6823 24.5169 27.6823 23.8852C27.6831 23.253 27.4372 22.6587 26.9898 22.2126L25.5352 20.7597C25.8615 20.1297 26.1312 19.4585 26.3403 18.7566L28.4215 18.7541C29.0524 18.7541 29.6446 18.5085 30.0894 18.0629C30.535 17.6164 30.7801 17.0238 30.7793 16.3937V14.3737C30.7789 13.0745 29.7189 12.015 28.4156 12.0125ZM15.3894 20.1012C12.7886 20.1012 10.6785 17.9911 10.6785 15.3899C10.6785 12.7891 12.7886 10.6789 15.3894 10.6789C17.9907 10.6789 20.1008 12.7891 20.1008 15.3899C20.1008 17.9911 17.9907 20.1012 15.3894 20.1012Z" fill="white"/>
</svg>
