<svg width="15" height="14" viewBox="0 0 15 14" fill="none" xmlns="http://www.w3.org/2000/svg">
<path fill-rule="evenodd" clip-rule="evenodd" d="M6.49614 10.2835C7.01922 10.8063 7.86734 10.8064 8.39056 10.2832L11.147 7.52708H13.397C14.2191 7.52708 14.8855 8.19357 14.8855 9.01563V11.9927C14.8855 12.8148 14.2191 13.4813 13.397 13.4813H1.48855C0.666448 13.4813 0 12.8148 0 11.9927V9.01563C5.40093e-05 8.19357 0.666481 7.52708 1.48855 7.52708H3.73941L6.49614 10.2835ZM12.4983 9.6189C12.0094 9.61891 11.613 10.0153 11.613 10.5042C11.613 10.9931 12.0094 11.3895 12.4983 11.3895C12.9873 11.3895 13.3836 10.9931 13.3836 10.5042C13.3836 10.0153 12.9873 9.6189 12.4983 9.6189Z" fill="#203A72"/>
<path d="M7.44306 0C7.77184 6.88873e-05 8.03848 0.266622 8.03848 0.595421V7.89864L10.8112 5.12591C11.0437 4.89346 11.4209 4.89348 11.6535 5.12591C11.8858 5.35842 11.8858 5.73541 11.6535 5.96788L7.86404 9.757C7.63153 9.98943 7.25458 9.98943 7.02208 9.757L3.23266 5.96788C3.00033 5.7354 3.00037 5.35841 3.23266 5.12591C3.46517 4.89346 3.8424 4.89348 4.07491 5.12591L6.84764 7.89864V0.595421C6.84764 0.266627 7.11428 7.81023e-05 7.44306 0Z" fill="#203A72"/>
</svg>
