<svg width="29" height="19" viewBox="0 0 29 19" fill="none" xmlns="http://www.w3.org/2000/svg">
<path d="M23.3588 4.24952H19.0087V0H0V15.8649H4.11409C4.11409 17.5608 5.48885 18.9355 7.18471 18.9355C8.88057 18.9355 10.2553 17.5608 10.2553 15.8649H17.1901H19.0087H20.0322C20.0322 17.5608 21.4069 18.9355 23.1028 18.9355C24.7987 18.9355 26.1734 17.5608 26.1734 15.8649H28.7598V9.92469L23.3588 4.24952ZM7.18471 17.3271C6.37724 17.3271 5.72254 16.6725 5.72254 15.8649C5.72254 15.0573 6.37724 14.4028 7.18471 14.4028C7.99217 14.4028 8.64687 15.0573 8.64687 15.8649C8.64687 16.6724 7.99217 17.3271 7.18471 17.3271ZM23.1028 17.3271C22.2953 17.3271 21.6406 16.6725 21.6406 15.8649C21.6406 15.0573 22.2953 14.4028 23.1028 14.4028C23.9103 14.4028 24.565 15.0573 24.565 15.8649C24.565 16.6724 23.9103 17.3271 23.1028 17.3271ZM20.8778 8.89658V6.04529H23.0115L25.7116 8.89658H20.8778Z" fill="#203A72"/>
</svg>
